<?xml version="1.0" standalone="no"?>
<!DOCTYPE svg PUBLIC "-//W3C//DTD SVG 20010904//EN"
 "http://www.w3.org/TR/2001/REC-SVG-20010904/DTD/svg10.dtd">
<svg version="1.0" xmlns="http://www.w3.org/2000/svg"
 width="500.000000pt" height="500.000000pt" viewBox="0 0 500.000000 500.000000"
 preserveAspectRatio="xMidYMid meet">
<metadata>
Created by potrace 1.14, written by Peter Selinger 2001-2017
</metadata>
<g transform="translate(0.000000,500.000000) scale(0.100000,-0.100000)"
fill="#000000" stroke="none">
<path d="M1397 3743 c38 -115 56 -165 103 -293 78 -212 111 -295 135 -344 14
-28 25 -57 25 -66 0 -27 107 -312 160 -425 23 -50 40 -101 55 -163 9 -37 45
-139 80 -227 35 -88 75 -191 90 -230 14 -38 37 -93 50 -122 14 -28 32 -78 40
-109 15 -58 56 -167 121 -319 19 -44 34 -89 35 -100 0 -11 13 -51 28 -90 l27
-70 157 -3 157 -3 15 38 c9 21 23 65 32 98 8 32 26 82 39 110 31 67 93 228
110 289 18 66 50 148 75 198 11 22 22 48 24 57 2 9 33 93 71 186 37 94 71 186
76 205 5 19 13 51 18 70 5 19 57 154 115 299 58 145 105 273 105 283 0 10 14
50 31 90 44 103 43 101 95 233 54 140 91 244 106 300 5 22 11 45 13 50 1 6 3
13 4 17 1 4 10 28 21 54 11 25 20 50 20 55 0 6 -71 8 -176 7 l-176 -3 -43
-122 c-23 -67 -49 -137 -57 -155 -18 -38 -52 -143 -68 -208 -17 -68 -87 -267
-160 -455 -32 -83 -84 -233 -125 -360 -22 -66 -43 -127 -47 -135 -19 -37 -60
-149 -68 -185 -10 -45 -88 -280 -102 -309 -5 -10 -11 -26 -13 -35 -4 -19 -74
-210 -85 -230 -4 -8 -21 26 -45 90 -20 57 -47 131 -59 164 -12 33 -35 101 -51
150 -16 50 -35 102 -42 118 -8 15 -18 46 -22 70 -5 23 -26 85 -46 137 -47 123
-93 253 -110 310 -7 25 -27 83 -45 130 -17 47 -52 141 -76 210 -25 68 -49 129
-53 135 -12 15 -67 182 -81 245 -13 57 -42 144 -65 195 -7 17 -30 78 -51 138
l-37 107 -177 0 -178 0 25 -77z"/>
</g>
</svg>
